<?xml version="1.0" encoding="UTF-8"?>
<svg width="18px" height="18px" viewBox="0 0 18 18" version="1.1" xmlns="http://www.w3.org/2000/svg" xmlns:xlink="http://www.w3.org/1999/xlink">
    <title>chef-hat</title>
    <g id="final" stroke="none" stroke-width="1" fill="none" fill-rule="evenodd" stroke-linecap="round" stroke-linejoin="round">
        <g id="via-michelin" transform="translate(-434.000000, -346.000000)" stroke="#A5ADC6" stroke-width="1.4">
            <g id="restaurant-1" transform="translate(132.000000, 258.000000)">
                <g id="details" transform="translate(210.000000, 89.000000)">
                    <g id="chef-hat" transform="translate(93.000000, 0.000000)">
                        <line x1="3.63636364" y1="13.0909091" x2="12.3636364" y2="13.0909091" id="Path"></line>
                        <line x1="8" y1="13.0909091" x2="8" y2="10.1818182" id="Path"></line>
                        <path d="M4.43636364,2.98181818 C4.14545455,2.90909091 3.92727273,2.90909091 3.63636364,2.90909091 C1.6,2.90909091 0,4.50909091 0,6.54545455 C0,8.58181818 1.6,10.1818182 3.63636364,10.1818182 L3.63636364,16 L12.3636364,16 L12.3636364,10.1818182 C14.4,10.1818182 16,8.58181818 16,6.54545455 C16,4.50909091 14.4,2.90909091 12.3636364,2.90909091 C12.0727273,2.90909091 11.8545455,2.90909091 11.5636364,2.98181818" id="Path"></path>
                        <path d="M4.65454545,5.09090909 C4.43636364,4.65454545 4.36363636,4.14545455 4.36363636,3.63636364 C4.36363636,1.6 5.96363636,0 8,0 C10.0363636,0 11.6363636,1.6 11.6363636,3.63636364 C11.6363636,4.14545455 11.5636364,4.65454545 11.3454545,5.09090909" id="Path"></path>
                    </g>
                </g>
            </g>
        </g>
    </g>
</svg>